<svg width="35" height="35" viewBox="0 0 100 100" xmlns="http://www.w3.org/2000/svg">
  <defs>
    <style>
      @keyframes blink { 
        0%, 92%, 100% { 
          height: 6; 
          ry: 3; 
        } 
        94%, 98% { 
          height: 1; 
          ry: 0.5; 
        } 
      }
      @keyframes glow { 
        0%, 100% { opacity: 0.6; } 
        50% { opacity: 1; } 
      }
      @keyframes smile {
        0%, 100% { d: path("M 44 47 Q 50 48.5 56 47"); }
        50% { d: path("M 44 47.5 Q 50 49 56 47.5"); }
      }
      .eye-left { animation: blink 4s infinite; }
      .eye-right { animation: blink 4s infinite 0.1s; }
      .antenna-light { animation: glow 2s ease-in-out infinite; }
      .smile { animation: smile 3s ease-in-out infinite; }
    </style>
  </defs>
  
  <!-- Body -->
  <rect x="25" y="40" width="50" height="45" rx="8" fill="#0B9FD8" opacity="0.95"/>
  
  <!-- Head -->
  <rect x="30" y="25" width="40" height="30" rx="6" fill="#0D5E7D"/>
  
  <!-- Antenna -->
  <line x1="50" y1="25" x2="50" y2="15" stroke="#0B9FD8" stroke-width="2"/>
  <circle cx="50" cy="13" r="3" fill="#0B9FD8" class="antenna-light"/>
  
  <!-- Eyes (blinking) -->
  <ellipse cx="42" cy="38" rx="3" class="eye-left" fill="white"/>
  <ellipse cx="58" cy="38" rx="3" class="eye-right" fill="white"/>
  <circle cx="43" cy="38" r="1.5" fill="#0D5E7D"/>
  <circle cx="59" cy="38" r="1.5" fill="#0D5E7D"/>
  
  <!-- Tiny Cute C-shape Smile -->
  <path class="smile" d="M 44 47 Q 50 48.5 56 47" stroke="white" stroke-width="1.3" fill="none" stroke-linecap="round"/>
  
  <!-- Arms -->
  <rect x="20" y="50" width="5" height="20" rx="2" fill="#0B9FD8"/>
  <rect x="75" y="50" width="5" height="20" rx="2" fill="#0B9FD8"/>
  
  <!-- Display screen -->
  <rect x="35" y="55" width="30" height="20" rx="2" fill="#4fc3f7" opacity="0.4"/>
  <line x1="38" y1="60" x2="48" y2="60" stroke="#0B9FD8" stroke-width="2"/>
  <line x1="38" y1="65" x2="55" y2="65" stroke="#0B9FD8" stroke-width="2"/>
  <line x1="38" y1="70" x2="52" y2="70" stroke="#0B9FD8" stroke-width="2"/>
</svg>
